<svg width="200" height="200" viewBox="0 0 200 200" fill="none" xmlns="http://www.w3.org/2000/svg">
<rect width="200" height="200" fill="#D9D9D9"/>
<path d="M62.8027 60.6C60.8693 60.6 59.0893 60.2667 57.4627 59.6C55.836 58.92 54.4227 57.9333 53.2227 56.64C52.0227 55.3467 51.0893 53.7733 50.4227 51.92C49.756 50.0667 49.4227 47.96 49.4227 45.6C49.4227 42.4933 49.9893 39.8267 51.1227 37.6C52.256 35.36 53.8293 33.64 55.8427 32.44C57.856 31.2267 60.176 30.62 62.8027 30.62C66.1893 30.62 68.8893 31.4067 70.9027 32.98C72.9293 34.5533 74.3093 36.7267 75.0427 39.5L70.8027 40.26C70.216 38.54 69.2693 37.1667 67.9627 36.14C66.656 35.1133 65.016 34.5933 63.0427 34.58C61.0027 34.5667 59.3027 35.02 57.9427 35.94C56.596 36.86 55.5827 38.1533 54.9027 39.82C54.2227 41.4733 53.876 43.4 53.8627 45.6C53.8493 47.8 54.1827 49.7267 54.8627 51.38C55.5427 53.02 56.5627 54.3 57.9227 55.22C59.296 56.14 61.0027 56.6067 63.0427 56.62C64.6827 56.6467 66.0893 56.3467 67.2627 55.72C68.4493 55.08 69.3893 54.1467 70.0827 52.92C70.776 51.6933 71.2227 50.1867 71.4227 48.4H65.8227V45.04H75.8627C75.8893 45.28 75.9093 45.6 75.9227 46C75.936 46.3867 75.9427 46.6333 75.9427 46.74C75.9427 49.4067 75.4293 51.7867 74.4027 53.88C73.376 55.9733 71.8827 57.62 69.9227 58.82C67.9627 60.0067 65.5893 60.6 62.8027 60.6ZM91.4089 60.6C89.1556 60.6 87.1622 60.14 85.4289 59.22C83.7089 58.2867 82.3622 56.9867 81.3889 55.32C80.4156 53.64 79.9289 51.6667 79.9289 49.4V31.22L84.1689 31.2V49.18C84.1689 50.4067 84.3756 51.4867 84.7889 52.42C85.2022 53.3533 85.7556 54.1333 86.4489 54.76C87.1422 55.3867 87.9156 55.86 88.7689 56.18C89.6356 56.5 90.5156 56.66 91.4089 56.66C92.3156 56.66 93.1956 56.5 94.0489 56.18C94.9156 55.8467 95.6956 55.3667 96.3889 54.74C97.0822 54.1133 97.6289 53.3333 98.0289 52.4C98.4422 51.4667 98.6489 50.3933 98.6489 49.18V31.2H102.889V49.4C102.889 51.6533 102.402 53.62 101.429 55.3C100.456 56.98 99.1022 58.2867 97.3689 59.22C95.6489 60.14 93.6622 60.6 91.4089 60.6ZM108.884 60V31.2H113.064V56.06H126.104V60H108.884ZM129.499 60V31.2H141.139C141.419 31.2 141.766 31.2133 142.179 31.24C142.593 31.2533 142.986 31.2933 143.359 31.36C144.959 31.6133 146.293 32.16 147.359 33C148.439 33.84 149.246 34.9 149.779 36.18C150.313 37.46 150.579 38.8733 150.579 40.42C150.579 41.98 150.313 43.4 149.779 44.68C149.246 45.96 148.439 47.02 147.359 47.86C146.293 48.7 144.959 49.2467 143.359 49.5C142.986 49.5533 142.586 49.5933 142.159 49.62C141.746 49.6467 141.406 49.66 141.139 49.66H133.679V60H129.499ZM133.679 45.7H140.979C141.246 45.7 141.539 45.6867 141.859 45.66C142.193 45.6333 142.506 45.5867 142.799 45.52C143.653 45.32 144.339 44.9533 144.859 44.42C145.379 43.8733 145.753 43.2467 145.979 42.54C146.206 41.8333 146.319 41.1267 146.319 40.42C146.319 39.7133 146.206 39.0133 145.979 38.32C145.753 37.6133 145.379 36.9933 144.859 36.46C144.339 35.9133 143.653 35.54 142.799 35.34C142.506 35.26 142.193 35.2067 141.859 35.18C141.539 35.1533 141.246 35.14 140.979 35.14H133.679V45.7ZM14.0172 115L5.65719 86.2H10.0372L16.0972 107.98L22.1572 86.22L26.5572 86.2L32.6172 107.98L38.6772 86.2H43.0772L34.6972 115H30.5372L24.3572 93.46L18.1772 115H14.0172ZM46.4328 115V86.2H64.8328V90.14H50.6128V98.22H62.4328V102.16H50.6128V111.06H64.8328V115H46.4328ZM69.6359 115V86.2H80.9559C82.7826 86.2 84.3159 86.5733 85.5559 87.32C86.7959 88.0667 87.7293 89.0333 88.3559 90.22C88.9826 91.3933 89.2959 92.6333 89.2959 93.94C89.2959 95.5267 88.9026 96.8867 88.1159 98.02C87.3426 99.1533 86.2959 99.9267 84.9759 100.34L84.9359 99.36C86.7759 99.8133 88.1893 100.7 89.1759 102.02C90.1626 103.327 90.6559 104.853 90.6559 106.6C90.6559 108.293 90.3159 109.767 89.6359 111.02C88.9693 112.273 87.9893 113.253 86.6959 113.96C85.4159 114.653 83.8626 115 82.0359 115H69.6359ZM73.8759 111.02H81.3959C82.3426 111.02 83.1893 110.84 83.9359 110.48C84.6959 110.12 85.2893 109.607 85.7159 108.94C86.1559 108.26 86.3759 107.453 86.3759 106.52C86.3759 105.653 86.1826 104.873 85.7959 104.18C85.4226 103.473 84.8759 102.92 84.1559 102.52C83.4493 102.107 82.6159 101.9 81.6559 101.9H73.8759V111.02ZM73.8759 97.96H80.8959C81.6693 97.96 82.3626 97.8067 82.9759 97.5C83.6026 97.18 84.0959 96.7267 84.4559 96.14C84.8293 95.54 85.0159 94.82 85.0159 93.98C85.0159 92.86 84.6426 91.94 83.8959 91.22C83.1493 90.5 82.1493 90.14 80.8959 90.14H73.8759V97.96ZM94.6359 115V86.2H106.276C106.556 86.2 106.903 86.2133 107.316 86.24C107.729 86.2533 108.123 86.2933 108.496 86.36C110.096 86.6133 111.429 87.16 112.496 88C113.576 88.84 114.383 89.9 114.916 91.18C115.449 92.46 115.716 93.8733 115.716 95.42C115.716 96.98 115.449 98.4 114.916 99.68C114.383 100.96 113.576 102.02 112.496 102.86C111.429 103.7 110.096 104.247 108.496 104.5C108.123 104.553 107.723 104.593 107.296 104.62C106.883 104.647 106.543 104.66 106.276 104.66H98.8159V115H94.6359ZM98.8159 100.7H106.116C106.383 100.7 106.676 100.687 106.996 100.66C107.329 100.633 107.643 100.587 107.936 100.52C108.789 100.32 109.476 99.9533 109.996 99.42C110.516 98.8733 110.889 98.2467 111.116 97.54C111.343 96.8333 111.456 96.1267 111.456 95.42C111.456 94.7133 111.343 94.0133 111.116 93.32C110.889 92.6133 110.516 91.9933 109.996 91.46C109.476 90.9133 108.789 90.54 107.936 90.34C107.643 90.26 107.329 90.2067 106.996 90.18C106.676 90.1533 106.383 90.14 106.116 90.14H98.8159V100.7ZM115.722 115L125.082 86.2H131.102L140.462 115H136.122L127.502 88.72H128.582L120.062 115H115.722ZM120.582 108.5V104.58H135.622V108.5H120.582ZM155.289 115.6C152.409 115.6 149.955 114.973 147.929 113.72C145.902 112.453 144.349 110.693 143.269 108.44C142.202 106.187 141.669 103.573 141.669 100.6C141.669 97.6267 142.202 95.0133 143.269 92.76C144.349 90.5067 145.902 88.7533 147.929 87.5C149.955 86.2333 152.409 85.6 155.289 85.6C158.609 85.6 161.355 86.44 163.529 88.12C165.715 89.8 167.235 92.06 168.089 94.9L163.849 96.04C163.289 94.0267 162.289 92.4467 160.849 91.3C159.422 90.1533 157.569 89.58 155.289 89.58C153.249 89.58 151.549 90.04 150.189 90.96C148.829 91.88 147.802 93.1667 147.109 94.82C146.429 96.4733 146.089 98.4 146.089 100.6C146.075 102.8 146.409 104.727 147.089 106.38C147.782 108.033 148.809 109.32 150.169 110.24C151.542 111.16 153.249 111.62 155.289 111.62C157.569 111.62 159.422 111.047 160.849 109.9C162.289 108.74 163.289 107.16 163.849 105.16L168.089 106.3C167.235 109.14 165.715 111.4 163.529 113.08C161.355 114.76 158.609 115.6 155.289 115.6ZM172.488 115V86.2H176.668V99.64L188.728 86.2H193.928L181.188 100.26L194.868 115H189.508L176.668 101.24V115H172.488ZM25.8377 170.6C23.771 170.6 21.9043 170.247 20.2377 169.54C18.5843 168.82 17.2177 167.8 16.1377 166.48C15.071 165.147 14.3777 163.567 14.0577 161.74L18.4177 161.08C18.8577 162.84 19.7777 164.213 21.1777 165.2C22.5777 166.173 24.211 166.66 26.0777 166.66C27.2377 166.66 28.3043 166.48 29.2777 166.12C30.251 165.747 31.031 165.22 31.6177 164.54C32.2177 163.847 32.5177 163.02 32.5177 162.06C32.5177 161.54 32.4243 161.08 32.2377 160.68C32.0643 160.28 31.8177 159.933 31.4977 159.64C31.191 159.333 30.811 159.073 30.3577 158.86C29.9177 158.633 29.431 158.44 28.8977 158.28L21.5177 156.1C20.7977 155.887 20.0643 155.613 19.3177 155.28C18.571 154.933 17.8843 154.487 17.2577 153.94C16.6443 153.38 16.1443 152.693 15.7577 151.88C15.371 151.053 15.1777 150.053 15.1777 148.88C15.1777 147.107 15.631 145.607 16.5377 144.38C17.4577 143.14 18.6977 142.207 20.2577 141.58C21.8177 140.94 23.5643 140.62 25.4977 140.62C27.4443 140.647 29.1843 140.993 30.7177 141.66C32.2643 142.327 33.5443 143.287 34.5577 144.54C35.5843 145.78 36.291 147.287 36.6777 149.06L32.1977 149.82C31.9977 148.74 31.571 147.813 30.9177 147.04C30.2643 146.253 29.4643 145.653 28.5177 145.24C27.571 144.813 26.5443 144.593 25.4377 144.58C24.371 144.553 23.391 144.713 22.4977 145.06C21.6177 145.407 20.911 145.893 20.3777 146.52C19.8577 147.147 19.5977 147.867 19.5977 148.68C19.5977 149.48 19.831 150.127 20.2977 150.62C20.7643 151.113 21.3377 151.507 22.0177 151.8C22.711 152.08 23.3977 152.313 24.0777 152.5L29.3977 154C30.0643 154.187 30.8177 154.44 31.6577 154.76C32.511 155.067 33.331 155.5 34.1177 156.06C34.9177 156.62 35.5777 157.367 36.0977 158.3C36.6177 159.22 36.8777 160.38 36.8777 161.78C36.8777 163.233 36.5843 164.513 35.9977 165.62C35.411 166.713 34.6043 167.633 33.5777 168.38C32.5643 169.113 31.391 169.667 30.0577 170.04C28.7243 170.413 27.3177 170.6 25.8377 170.6ZM48.3198 170V145.14H38.7398V141.2H62.0798V145.14H52.4998V170H48.3198ZM62.4992 170L71.8592 141.2H77.8792L87.2392 170H82.8992L74.2792 143.72H75.3592L66.8392 170H62.4992ZM67.3592 163.5V159.58H82.3992V163.5H67.3592ZM90.8273 170V141.2H102.467C102.747 141.2 103.094 141.213 103.507 141.24C103.921 141.253 104.314 141.293 104.687 141.36C106.287 141.613 107.621 142.16 108.687 143C109.767 143.84 110.574 144.9 111.107 146.18C111.641 147.46 111.907 148.873 111.907 150.42C111.907 152.713 111.321 154.693 110.147 156.36C108.974 158.013 107.214 159.047 104.867 159.46L103.167 159.66H95.0073V170H90.8273ZM107.667 170L101.987 158.28L106.207 157.2L112.447 170H107.667ZM95.0073 155.7H102.307C102.574 155.7 102.867 155.687 103.187 155.66C103.521 155.633 103.834 155.587 104.127 155.52C104.981 155.32 105.667 154.953 106.187 154.42C106.707 153.873 107.081 153.247 107.307 152.54C107.534 151.833 107.647 151.127 107.647 150.42C107.647 149.713 107.534 149.013 107.307 148.32C107.081 147.613 106.707 146.993 106.187 146.46C105.667 145.913 104.981 145.54 104.127 145.34C103.834 145.26 103.521 145.207 103.187 145.18C102.867 145.153 102.574 145.14 102.307 145.14H95.0073V155.7ZM124.023 170V145.14H114.443V141.2H137.783V145.14H128.203V170H124.023ZM140.984 170V141.2H159.384V145.14H145.164V153.22H156.984V157.16H145.164V166.06H159.384V170H140.984ZM164.187 170V141.2H175.827C176.107 141.2 176.453 141.213 176.867 141.24C177.28 141.253 177.673 141.293 178.047 141.36C179.647 141.613 180.98 142.16 182.047 143C183.127 143.84 183.933 144.9 184.467 146.18C185 147.46 185.267 148.873 185.267 150.42C185.267 152.713 184.68 154.693 183.507 156.36C182.333 158.013 180.573 159.047 178.227 159.46L176.527 159.66H168.367V170H164.187ZM181.027 170L175.347 158.28L179.567 157.2L185.807 170H181.027ZM168.367 155.7H175.667C175.933 155.7 176.227 155.687 176.547 155.66C176.88 155.633 177.193 155.587 177.487 155.52C178.34 155.32 179.027 154.953 179.547 154.42C180.067 153.873 180.44 153.247 180.667 152.54C180.893 151.833 181.007 151.127 181.007 150.42C181.007 149.713 180.893 149.013 180.667 148.32C180.44 147.613 180.067 146.993 179.547 146.46C179.027 145.913 178.34 145.54 177.487 145.34C177.193 145.26 176.88 145.207 176.547 145.18C176.227 145.153 175.933 145.14 175.667 145.14H168.367V155.7Z" fill="black"/>
</svg>
