<svg width="148" height="18" viewBox="0 0 148 18" fill="none" xmlns="http://www.w3.org/2000/svg">
<path d="M9.414 1.22C11.07 1.22 12.54 1.562 13.824 2.246C15.12 2.918 16.128 3.848 16.848 5.036C17.568 6.224 17.928 7.568 17.928 9.068C17.928 10.124 17.772 11.036 17.46 11.804C17.16 12.56 16.734 13.136 16.182 13.532C15.63 13.928 14.982 14.126 14.238 14.126C13.626 14.126 13.11 13.994 12.69 13.73C12.27 13.466 11.964 13.076 11.772 12.56C11.124 13.604 10.098 14.126 8.694 14.126C7.926 14.126 7.224 13.934 6.588 13.55C5.952 13.166 5.448 12.632 5.076 11.948C4.716 11.252 4.536 10.46 4.536 9.572C4.536 8.696 4.716 7.916 5.076 7.232C5.448 6.536 5.946 5.996 6.57 5.612C7.206 5.228 7.914 5.036 8.694 5.036C9.882 5.036 10.806 5.432 11.466 6.224V5.162H13.914V10.994C13.914 11.762 14.202 12.146 14.778 12.146C15.198 12.146 15.522 11.894 15.75 11.39C15.99 10.886 16.11 10.124 16.11 9.104C16.11 7.892 15.828 6.824 15.264 5.9C14.712 4.964 13.926 4.238 12.906 3.722C11.898 3.194 10.734 2.93 9.414 2.93C8.094 2.93 6.924 3.212 5.904 3.776C4.896 4.328 4.11 5.096 3.546 6.08C2.994 7.064 2.718 8.18 2.718 9.428C2.718 10.7 2.994 11.834 3.546 12.83C4.098 13.814 4.872 14.582 5.868 15.134C6.876 15.698 8.034 15.98 9.342 15.98C10.638 15.98 11.82 15.716 12.888 15.188L13.464 16.844C12.924 17.12 12.282 17.33 11.538 17.474C10.806 17.63 10.074 17.708 9.342 17.708C7.638 17.708 6.132 17.348 4.824 16.628C3.516 15.92 2.502 14.936 1.782 13.676C1.062 12.416 0.702 11 0.702 9.428C0.702 7.868 1.062 6.464 1.782 5.216C2.514 3.968 3.54 2.99 4.86 2.282C6.18 1.574 7.698 1.22 9.414 1.22ZM9.252 12.056C9.912 12.056 10.452 11.84 10.872 11.408C11.292 10.964 11.502 10.352 11.502 9.572C11.502 8.804 11.292 8.204 10.872 7.772C10.452 7.34 9.912 7.124 9.252 7.124C8.58 7.124 8.04 7.346 7.632 7.79C7.224 8.222 7.02 8.816 7.02 9.572C7.02 10.34 7.224 10.946 7.632 11.39C8.04 11.834 8.58 12.056 9.252 12.056ZM23.8348 4.172C25.3348 4.172 26.4868 4.532 27.2908 5.252C28.0948 5.96 28.4968 7.034 28.4968 8.474V14H25.8688V12.794C25.3408 13.694 24.3568 14.144 22.9168 14.144C22.1728 14.144 21.5248 14.018 20.9728 13.766C20.4328 13.514 20.0188 13.166 19.7308 12.722C19.4428 12.278 19.2988 11.774 19.2988 11.21C19.2988 10.31 19.6348 9.602 20.3068 9.086C20.9908 8.57 22.0408 8.312 23.4568 8.312H25.6888C25.6888 7.7 25.5028 7.232 25.1308 6.908C24.7588 6.572 24.2008 6.404 23.4568 6.404C22.9408 6.404 22.4308 6.488 21.9268 6.656C21.4348 6.812 21.0148 7.028 20.6668 7.304L19.6588 5.342C20.1868 4.97 20.8168 4.682 21.5488 4.478C22.2928 4.274 23.0548 4.172 23.8348 4.172ZM23.6188 12.254C24.0988 12.254 24.5248 12.146 24.8968 11.93C25.2688 11.702 25.5328 11.372 25.6888 10.94V9.95H23.7628C22.6108 9.95 22.0348 10.328 22.0348 11.084C22.0348 11.444 22.1728 11.732 22.4488 11.948C22.7368 12.152 23.1268 12.254 23.6188 12.254ZM41.0077 0.643999V14H38.3257V12.884C37.6297 13.724 36.6217 14.144 35.3017 14.144C34.3897 14.144 33.5617 13.94 32.8177 13.532C32.0857 13.124 31.5097 12.542 31.0897 11.786C30.6697 11.03 30.4597 10.154 30.4597 9.158C30.4597 8.162 30.6697 7.286 31.0897 6.53C31.5097 5.774 32.0857 5.192 32.8177 4.784C33.5617 4.376 34.3897 4.172 35.3017 4.172C36.5377 4.172 37.5037 4.562 38.1997 5.342V0.643999H41.0077ZM35.7877 11.84C36.4957 11.84 37.0837 11.6 37.5517 11.12C38.0197 10.628 38.2537 9.974 38.2537 9.158C38.2537 8.342 38.0197 7.694 37.5517 7.214C37.0837 6.722 36.4957 6.476 35.7877 6.476C35.0677 6.476 34.4737 6.722 34.0057 7.214C33.5377 7.694 33.3037 8.342 33.3037 9.158C33.3037 9.974 33.5377 10.628 34.0057 11.12C34.4737 11.6 35.0677 11.84 35.7877 11.84ZM53.2185 4.316L49.1325 14H46.2345L42.1665 4.316H45.0645L47.7465 10.904L50.5185 4.316H53.2185ZM58.7087 14.144C57.6887 14.144 56.7707 13.934 55.9547 13.514C55.1507 13.082 54.5207 12.488 54.0647 11.732C53.6087 10.976 53.3807 10.118 53.3807 9.158C53.3807 8.198 53.6087 7.34 54.0647 6.584C54.5207 5.828 55.1507 5.24 55.9547 4.82C56.7707 4.388 57.6887 4.172 58.7087 4.172C59.7287 4.172 60.6407 4.388 61.4447 4.82C62.2487 5.24 62.8787 5.828 63.3347 6.584C63.7907 7.34 64.0187 8.198 64.0187 9.158C64.0187 10.118 63.7907 10.976 63.3347 11.732C62.8787 12.488 62.2487 13.082 61.4447 13.514C60.6407 13.934 59.7287 14.144 58.7087 14.144ZM58.7087 11.84C59.4287 11.84 60.0167 11.6 60.4727 11.12C60.9407 10.628 61.1747 9.974 61.1747 9.158C61.1747 8.342 60.9407 7.694 60.4727 7.214C60.0167 6.722 59.4287 6.476 58.7087 6.476C57.9887 6.476 57.3947 6.722 56.9267 7.214C56.4587 7.694 56.2247 8.342 56.2247 9.158C56.2247 9.974 56.4587 10.628 56.9267 11.12C57.3947 11.6 57.9887 11.84 58.7087 11.84ZM71.6196 4.172C72.5196 4.172 73.3356 4.382 74.0676 4.802C74.8116 5.21 75.3936 5.792 75.8136 6.548C76.2336 7.292 76.4436 8.162 76.4436 9.158C76.4436 10.154 76.2336 11.03 75.8136 11.786C75.3936 12.53 74.8116 13.112 74.0676 13.532C73.3356 13.94 72.5196 14.144 71.6196 14.144C70.3836 14.144 69.4116 13.754 68.7036 12.974V17.492H65.8956V4.316H68.5776V5.432C69.2736 4.592 70.2876 4.172 71.6196 4.172ZM71.1336 11.84C71.8536 11.84 72.4416 11.6 72.8976 11.12C73.3656 10.628 73.5996 9.974 73.5996 9.158C73.5996 8.342 73.3656 7.694 72.8976 7.214C72.4416 6.722 71.8536 6.476 71.1336 6.476C70.4136 6.476 69.8196 6.722 69.3516 7.214C68.8956 7.694 68.6676 8.342 68.6676 9.158C68.6676 9.974 68.8956 10.628 69.3516 11.12C69.8196 11.6 70.4136 11.84 71.1336 11.84ZM81.0053 5.594C81.3413 5.126 81.7913 4.772 82.3553 4.532C82.9313 4.292 83.5913 4.172 84.3353 4.172V6.764C84.0233 6.74 83.8133 6.728 83.7053 6.728C82.9013 6.728 82.2713 6.956 81.8153 7.412C81.3593 7.856 81.1313 8.528 81.1313 9.428V14H78.3233V4.316H81.0053V5.594ZM90.5251 14.144C89.5051 14.144 88.5871 13.934 87.7711 13.514C86.9671 13.082 86.3371 12.488 85.8811 11.732C85.4251 10.976 85.1971 10.118 85.1971 9.158C85.1971 8.198 85.4251 7.34 85.8811 6.584C86.3371 5.828 86.9671 5.24 87.7711 4.82C88.5871 4.388 89.5051 4.172 90.5251 4.172C91.5451 4.172 92.4571 4.388 93.2611 4.82C94.0651 5.24 94.6951 5.828 95.1511 6.584C95.6071 7.34 95.8351 8.198 95.8351 9.158C95.8351 10.118 95.6071 10.976 95.1511 11.732C94.6951 12.488 94.0651 13.082 93.2611 13.514C92.4571 13.934 91.5451 14.144 90.5251 14.144ZM90.5251 11.84C91.2451 11.84 91.8331 11.6 92.2891 11.12C92.7571 10.628 92.9911 9.974 92.9911 9.158C92.9911 8.342 92.7571 7.694 92.2891 7.214C91.8331 6.722 91.2451 6.476 90.5251 6.476C89.8051 6.476 89.2111 6.722 88.7431 7.214C88.2751 7.694 88.0411 8.342 88.0411 9.158C88.0411 9.974 88.2751 10.628 88.7431 11.12C89.2111 11.6 89.8051 11.84 90.5251 11.84ZM107.06 4.316L102.974 14H100.076L96.0083 4.316H98.9063L101.588 10.904L104.36 4.316H107.06ZM117.428 9.194C117.428 9.23 117.41 9.482 117.374 9.95H110.048C110.18 10.55 110.492 11.024 110.984 11.372C111.476 11.72 112.088 11.894 112.82 11.894C113.324 11.894 113.768 11.822 114.152 11.678C114.548 11.522 114.914 11.282 115.25 10.958L116.744 12.578C115.832 13.622 114.5 14.144 112.748 14.144C111.656 14.144 110.69 13.934 109.85 13.514C109.01 13.082 108.362 12.488 107.906 11.732C107.45 10.976 107.222 10.118 107.222 9.158C107.222 8.21 107.444 7.358 107.888 6.602C108.344 5.834 108.962 5.24 109.742 4.82C110.534 4.388 111.416 4.172 112.388 4.172C113.336 4.172 114.194 4.376 114.962 4.784C115.73 5.192 116.33 5.78 116.762 6.548C117.206 7.304 117.428 8.186 117.428 9.194ZM112.406 6.296C111.77 6.296 111.236 6.476 110.804 6.836C110.372 7.196 110.108 7.688 110.012 8.312H114.782C114.686 7.7 114.422 7.214 113.99 6.854C113.558 6.482 113.03 6.296 112.406 6.296ZM121.98 5.594C122.316 5.126 122.766 4.772 123.33 4.532C123.906 4.292 124.566 4.172 125.31 4.172V6.764C124.998 6.74 124.788 6.728 124.68 6.728C123.876 6.728 123.246 6.956 122.79 7.412C122.334 7.856 122.106 8.528 122.106 9.428V14H119.298V4.316H121.98V5.594ZM131.138 10.202L129.788 11.534V14H126.98V0.643999H129.788V8.204L133.892 4.316H137.24L133.208 8.42L137.6 14H134.198L131.138 10.202ZM142.503 4.172C144.003 4.172 145.155 4.532 145.959 5.252C146.763 5.96 147.165 7.034 147.165 8.474V14H144.537V12.794C144.009 13.694 143.025 14.144 141.585 14.144C140.841 14.144 140.193 14.018 139.641 13.766C139.101 13.514 138.687 13.166 138.399 12.722C138.111 12.278 137.967 11.774 137.967 11.21C137.967 10.31 138.303 9.602 138.975 9.086C139.659 8.57 140.709 8.312 142.125 8.312H144.357C144.357 7.7 144.171 7.232 143.799 6.908C143.427 6.572 142.869 6.404 142.125 6.404C141.609 6.404 141.099 6.488 140.595 6.656C140.103 6.812 139.683 7.028 139.335 7.304L138.327 5.342C138.855 4.97 139.485 4.682 140.217 4.478C140.961 4.274 141.723 4.172 142.503 4.172ZM142.287 12.254C142.767 12.254 143.193 12.146 143.565 11.93C143.937 11.702 144.201 11.372 144.357 10.94V9.95H142.431C141.279 9.95 140.703 10.328 140.703 11.084C140.703 11.444 140.841 11.732 141.117 11.948C141.405 12.152 141.795 12.254 142.287 12.254Z" fill="white"/>
</svg>
